<svg width="225" height="26" viewBox="0 0 225 26" fill="none" xmlns="http://www.w3.org/2000/svg">
<mask id="path-1-outside-1_747_3386" maskUnits="userSpaceOnUse" x="-2" y="-2" width="229" height="30" fill="black">
<rect fill="white" x="-2" y="-2" width="229" height="30"/>
<path d="M3.47731 0.799998H12.1173V5.12H5.20531L5.09731 5.336L10.8573 15.848C12.0333 17.96 12.6213 19.568 12.6213 20.672C12.6213 23.096 11.8173 24.872 10.2093 26H0.669313V21.824H8.12131L8.22931 21.608L1.74931 9.98C0.813313 8.3 0.345313 6.932 0.345313 5.876C0.345313 3.38 1.38931 1.688 3.47731 0.799998ZM15.3272 17.972V11.384H12.8432V7.604H15.3272V2.6H20.1152V7.604H23.0672V11.384H20.1152V19.124C20.1152 20.588 20.3672 21.62 20.8712 22.22H23.0672V26H17.9552C16.6832 24.824 15.9152 23.552 15.6512 22.184C15.4352 21.032 15.3272 19.628 15.3272 17.972ZM33.4265 11.384H30.7265C30.3665 11.816 30.0665 12.416 29.8265 13.184C29.6105 13.952 29.5025 14.696 29.5025 15.416H34.6505C34.6985 14.696 34.6025 13.952 34.3625 13.184C34.1225 12.392 33.8105 11.792 33.4265 11.384ZM38.3225 22.22V26H29.1785C27.4985 24.872 26.3105 23.48 25.6145 21.824C24.9425 20.144 24.6065 18.452 24.6065 16.748C24.6065 12.812 26.0945 9.764 29.0705 7.604H34.9025C36.5105 8.78 37.6025 10.028 38.1785 11.348C38.7545 12.668 39.0425 14 39.0425 15.344C39.0425 16.688 38.9345 17.84 38.7185 18.8H29.7545C29.8265 19.352 30.0305 19.988 30.3665 20.708C30.7265 21.404 31.1105 21.908 31.5185 22.22H38.3225ZM41.4942 26V7.604H44.9142L45.8142 9.548C46.7742 8.252 47.9862 7.604 49.4502 7.604H50.8542V12.428H46.2822V26H41.4942ZM60.5671 11.384H57.8671C57.5071 11.816 57.2071 12.416 56.9671 13.184C56.7511 13.952 56.6431 14.696 56.6431 15.416H61.7911C61.8391 14.696 61.7431 13.952 61.5031 13.184C61.2631 12.392 60.9511 11.792 60.5671 11.384ZM65.4631 22.22V26H56.3191C54.6391 24.872 53.4511 23.48 52.7551 21.824C52.0831 20.144 51.7471 18.452 51.7471 16.748C51.7471 12.812 53.2351 9.764 56.2111 7.604H62.0431C63.6511 8.78 64.7431 10.028 65.3191 11.348C65.8951 12.668 66.1831 14 66.1831 15.344C66.1831 16.688 66.0751 17.84 65.8591 18.8H56.8951C56.9671 19.352 57.1711 19.988 57.5071 20.708C57.8671 21.404 58.2511 21.908 58.6591 22.22H65.4631ZM79.5428 26H71.6948C69.2948 23.768 68.0948 20.72 68.0948 16.856C68.0948 14.912 68.3588 13.22 68.8868 11.78C69.4388 10.34 70.3028 8.948 71.4788 7.604H79.9028C81.1508 9.044 82.0028 10.448 82.4588 11.816C82.9148 13.16 83.1428 14.84 83.1428 16.856C83.1428 20.72 81.9428 23.768 79.5428 26ZM74.2508 22.22H76.9868C77.8508 20.54 78.2828 18.632 78.2828 16.496C78.2828 14.36 77.8388 12.656 76.9508 11.384H74.2508C73.3868 12.608 72.9548 14.348 72.9548 16.604C72.9548 18.836 73.3868 20.708 74.2508 22.22ZM100.846 14.48H100.702H100.846L102.754 6.596L104.302 0.799998H108.802L110.422 26H105.706L105.022 12.248H104.842L102.25 22.4H99.2975L96.7055 12.248H96.5255L95.8415 26H91.1255L92.7455 0.799998H97.2455L98.7935 6.596L100.702 14.48H100.846ZM121.818 17.684H117.966C117.462 18.308 117.21 19.088 117.21 20.024C117.21 20.96 117.474 21.692 118.002 22.22H121.818V17.684ZM114.078 7.604H123.006C124.446 8.468 125.394 9.464 125.85 10.592C126.306 11.696 126.534 13.208 126.534 15.128V20.528C126.534 22.52 126.582 24.344 126.678 26H122.574L121.926 24.704C120.99 25.568 119.67 26 117.966 26H115.698C113.658 24.656 112.638 22.724 112.638 20.204C112.638 17.66 113.682 15.656 115.77 14.192H119.154C120.09 14.192 120.966 14.48 121.782 15.056V13.256C121.782 12.32 121.374 11.696 120.558 11.384H114.078V7.604ZM143.562 26H139.926L139.278 24.704C138.75 25.184 138.246 25.52 137.766 25.712C137.31 25.904 136.614 26 135.678 26H132.546C131.49 24.992 130.65 23.672 130.026 22.04C129.426 20.408 129.126 18.584 129.126 16.568C129.126 14.528 129.426 12.8 130.026 11.384C130.65 9.968 131.526 8.708 132.654 7.604H135.75C137.022 7.604 138.03 7.94 138.774 8.612V0.799998H143.562V26ZM138.774 11.384H135.318C134.43 12.896 133.986 14.756 133.986 16.964C133.986 19.148 134.418 20.9 135.282 22.22H138.774V11.384ZM154.638 7.604H158.454C159.51 8.948 160.23 10.292 160.614 11.636C160.998 12.98 161.19 14.66 161.19 16.676V26H156.402V16.316C156.402 14.036 156.09 12.392 155.466 11.384H151.434V26H146.646V7.604H150.39L151.038 8.9C151.566 8.42 152.058 8.084 152.514 7.892C152.994 7.7 153.702 7.604 154.638 7.604ZM172.469 11.384H169.769C169.409 11.816 169.109 12.416 168.869 13.184C168.653 13.952 168.545 14.696 168.545 15.416H173.693C173.741 14.696 173.645 13.952 173.405 13.184C173.165 12.392 172.853 11.792 172.469 11.384ZM177.365 22.22V26H168.221C166.541 24.872 165.353 23.48 164.657 21.824C163.985 20.144 163.649 18.452 163.649 16.748C163.649 12.812 165.137 9.764 168.113 7.604H173.945C175.553 8.78 176.645 10.028 177.221 11.348C177.797 12.668 178.085 14 178.085 15.344C178.085 16.688 177.977 17.84 177.761 18.8H168.797C168.869 19.352 169.073 19.988 169.409 20.708C169.769 21.404 170.153 21.908 170.561 22.22H177.365ZM181.739 7.604H189.695V11.384H184.079L187.499 16.46C189.035 18.644 189.887 20.144 190.055 20.96C190.151 21.344 190.199 21.74 190.199 22.148C190.199 23.852 189.563 25.136 188.291 26H179.111V22.22H185.699L181.847 16.568C181.679 16.304 181.415 15.932 181.055 15.452C180.719 14.972 180.455 14.588 180.263 14.3C180.071 13.988 179.939 13.76 179.867 13.616C179.795 13.472 179.699 13.292 179.579 13.076C179.459 12.836 179.375 12.632 179.327 12.464C179.231 12.008 179.183 11.636 179.183 11.348C179.183 9.596 180.035 8.348 181.739 7.604ZM194.325 7.604H202.281V11.384H196.665L200.085 16.46C201.621 18.644 202.473 20.144 202.641 20.96C202.737 21.344 202.785 21.74 202.785 22.148C202.785 23.852 202.149 25.136 200.877 26H191.697V22.22H198.285L194.433 16.568C194.265 16.304 194.001 15.932 193.641 15.452C193.305 14.972 193.041 14.588 192.849 14.3C192.657 13.988 192.525 13.76 192.453 13.616C192.381 13.472 192.285 13.292 192.165 13.076C192.045 12.836 191.961 12.632 191.913 12.464C191.817 12.008 191.769 11.636 191.769 11.348C191.769 9.596 192.621 8.348 194.325 7.604ZM220.74 0.799998L214.944 16.28H220.272V9.728H224.952V26H220.272V20.78H213.612C211.524 19.7 210.48 18.032 210.48 15.776C210.48 14.744 211.056 12.788 212.208 9.908L215.808 0.799998H220.74Z"/>
</mask>
<path d="M3.47731 0.799998H12.1173V5.12H5.20531L5.09731 5.336L10.8573 15.848C12.0333 17.96 12.6213 19.568 12.6213 20.672C12.6213 23.096 11.8173 24.872 10.2093 26H0.669313V21.824H8.12131L8.22931 21.608L1.74931 9.98C0.813313 8.3 0.345313 6.932 0.345313 5.876C0.345313 3.38 1.38931 1.688 3.47731 0.799998ZM15.3272 17.972V11.384H12.8432V7.604H15.3272V2.6H20.1152V7.604H23.0672V11.384H20.1152V19.124C20.1152 20.588 20.3672 21.62 20.8712 22.22H23.0672V26H17.9552C16.6832 24.824 15.9152 23.552 15.6512 22.184C15.4352 21.032 15.3272 19.628 15.3272 17.972ZM33.4265 11.384H30.7265C30.3665 11.816 30.0665 12.416 29.8265 13.184C29.6105 13.952 29.5025 14.696 29.5025 15.416H34.6505C34.6985 14.696 34.6025 13.952 34.3625 13.184C34.1225 12.392 33.8105 11.792 33.4265 11.384ZM38.3225 22.22V26H29.1785C27.4985 24.872 26.3105 23.48 25.6145 21.824C24.9425 20.144 24.6065 18.452 24.6065 16.748C24.6065 12.812 26.0945 9.764 29.0705 7.604H34.9025C36.5105 8.78 37.6025 10.028 38.1785 11.348C38.7545 12.668 39.0425 14 39.0425 15.344C39.0425 16.688 38.9345 17.84 38.7185 18.8H29.7545C29.8265 19.352 30.0305 19.988 30.3665 20.708C30.7265 21.404 31.1105 21.908 31.5185 22.22H38.3225ZM41.4942 26V7.604H44.9142L45.8142 9.548C46.7742 8.252 47.9862 7.604 49.4502 7.604H50.8542V12.428H46.2822V26H41.4942ZM60.5671 11.384H57.8671C57.5071 11.816 57.2071 12.416 56.9671 13.184C56.7511 13.952 56.6431 14.696 56.6431 15.416H61.7911C61.8391 14.696 61.7431 13.952 61.5031 13.184C61.2631 12.392 60.9511 11.792 60.5671 11.384ZM65.4631 22.22V26H56.3191C54.6391 24.872 53.4511 23.48 52.7551 21.824C52.0831 20.144 51.7471 18.452 51.7471 16.748C51.7471 12.812 53.2351 9.764 56.2111 7.604H62.0431C63.6511 8.78 64.7431 10.028 65.3191 11.348C65.8951 12.668 66.1831 14 66.1831 15.344C66.1831 16.688 66.0751 17.84 65.8591 18.8H56.8951C56.9671 19.352 57.1711 19.988 57.5071 20.708C57.8671 21.404 58.2511 21.908 58.6591 22.22H65.4631ZM79.5428 26H71.6948C69.2948 23.768 68.0948 20.72 68.0948 16.856C68.0948 14.912 68.3588 13.22 68.8868 11.78C69.4388 10.34 70.3028 8.948 71.4788 7.604H79.9028C81.1508 9.044 82.0028 10.448 82.4588 11.816C82.9148 13.16 83.1428 14.84 83.1428 16.856C83.1428 20.72 81.9428 23.768 79.5428 26ZM74.2508 22.22H76.9868C77.8508 20.54 78.2828 18.632 78.2828 16.496C78.2828 14.36 77.8388 12.656 76.9508 11.384H74.2508C73.3868 12.608 72.9548 14.348 72.9548 16.604C72.9548 18.836 73.3868 20.708 74.2508 22.22ZM100.846 14.48H100.702H100.846L102.754 6.596L104.302 0.799998H108.802L110.422 26H105.706L105.022 12.248H104.842L102.25 22.4H99.2975L96.7055 12.248H96.5255L95.8415 26H91.1255L92.7455 0.799998H97.2455L98.7935 6.596L100.702 14.48H100.846ZM121.818 17.684H117.966C117.462 18.308 117.21 19.088 117.21 20.024C117.21 20.96 117.474 21.692 118.002 22.22H121.818V17.684ZM114.078 7.604H123.006C124.446 8.468 125.394 9.464 125.85 10.592C126.306 11.696 126.534 13.208 126.534 15.128V20.528C126.534 22.52 126.582 24.344 126.678 26H122.574L121.926 24.704C120.99 25.568 119.67 26 117.966 26H115.698C113.658 24.656 112.638 22.724 112.638 20.204C112.638 17.66 113.682 15.656 115.77 14.192H119.154C120.09 14.192 120.966 14.48 121.782 15.056V13.256C121.782 12.32 121.374 11.696 120.558 11.384H114.078V7.604ZM143.562 26H139.926L139.278 24.704C138.75 25.184 138.246 25.52 137.766 25.712C137.31 25.904 136.614 26 135.678 26H132.546C131.49 24.992 130.65 23.672 130.026 22.04C129.426 20.408 129.126 18.584 129.126 16.568C129.126 14.528 129.426 12.8 130.026 11.384C130.65 9.968 131.526 8.708 132.654 7.604H135.75C137.022 7.604 138.03 7.94 138.774 8.612V0.799998H143.562V26ZM138.774 11.384H135.318C134.43 12.896 133.986 14.756 133.986 16.964C133.986 19.148 134.418 20.9 135.282 22.22H138.774V11.384ZM154.638 7.604H158.454C159.51 8.948 160.23 10.292 160.614 11.636C160.998 12.98 161.19 14.66 161.19 16.676V26H156.402V16.316C156.402 14.036 156.09 12.392 155.466 11.384H151.434V26H146.646V7.604H150.39L151.038 8.9C151.566 8.42 152.058 8.084 152.514 7.892C152.994 7.7 153.702 7.604 154.638 7.604ZM172.469 11.384H169.769C169.409 11.816 169.109 12.416 168.869 13.184C168.653 13.952 168.545 14.696 168.545 15.416H173.693C173.741 14.696 173.645 13.952 173.405 13.184C173.165 12.392 172.853 11.792 172.469 11.384ZM177.365 22.22V26H168.221C166.541 24.872 165.353 23.48 164.657 21.824C163.985 20.144 163.649 18.452 163.649 16.748C163.649 12.812 165.137 9.764 168.113 7.604H173.945C175.553 8.78 176.645 10.028 177.221 11.348C177.797 12.668 178.085 14 178.085 15.344C178.085 16.688 177.977 17.84 177.761 18.8H168.797C168.869 19.352 169.073 19.988 169.409 20.708C169.769 21.404 170.153 21.908 170.561 22.22H177.365ZM181.739 7.604H189.695V11.384H184.079L187.499 16.46C189.035 18.644 189.887 20.144 190.055 20.96C190.151 21.344 190.199 21.74 190.199 22.148C190.199 23.852 189.563 25.136 188.291 26H179.111V22.22H185.699L181.847 16.568C181.679 16.304 181.415 15.932 181.055 15.452C180.719 14.972 180.455 14.588 180.263 14.3C180.071 13.988 179.939 13.76 179.867 13.616C179.795 13.472 179.699 13.292 179.579 13.076C179.459 12.836 179.375 12.632 179.327 12.464C179.231 12.008 179.183 11.636 179.183 11.348C179.183 9.596 180.035 8.348 181.739 7.604ZM194.325 7.604H202.281V11.384H196.665L200.085 16.46C201.621 18.644 202.473 20.144 202.641 20.96C202.737 21.344 202.785 21.74 202.785 22.148C202.785 23.852 202.149 25.136 200.877 26H191.697V22.22H198.285L194.433 16.568C194.265 16.304 194.001 15.932 193.641 15.452C193.305 14.972 193.041 14.588 192.849 14.3C192.657 13.988 192.525 13.76 192.453 13.616C192.381 13.472 192.285 13.292 192.165 13.076C192.045 12.836 191.961 12.632 191.913 12.464C191.817 12.008 191.769 11.636 191.769 11.348C191.769 9.596 192.621 8.348 194.325 7.604ZM220.74 0.799998L214.944 16.28H220.272V9.728H224.952V26H220.272V20.78H213.612C211.524 19.7 210.48 18.032 210.48 15.776C210.48 14.744 211.056 12.788 212.208 9.908L215.808 0.799998H220.74Z" fill="#7E2D32"/>
<path d="M3.47731 0.799998V-1.2H3.06969L2.69458 -1.04047L3.47731 0.799998ZM12.1173 0.799998H14.1173V-1.2H12.1173V0.799998ZM12.1173 5.12V7.12H14.1173V5.12H12.1173ZM5.20531 5.12V3.12H3.96924L3.41646 4.22557L5.20531 5.12ZM5.09731 5.336L3.30846 4.44158L2.84002 5.37846L3.34336 6.29707L5.09731 5.336ZM10.8573 15.848L9.10332 16.8091L9.10994 16.821L10.8573 15.848ZM10.2093 26V28H10.8409L11.3579 27.6373L10.2093 26ZM0.669313 26H-1.33069V28H0.669313V26ZM0.669313 21.824V19.824H-1.33069V21.824H0.669313ZM8.12131 21.824V23.824H9.35738L9.91017 22.7184L8.12131 21.824ZM8.22931 21.608L10.0182 22.5024L10.4907 21.5574L9.97635 20.6344L8.22931 21.608ZM1.74931 9.98L0.00217654 10.9534L0.00227524 10.9536L1.74931 9.98ZM3.47731 2.8H12.1173V-1.2H3.47731V2.8ZM10.1173 0.799998V5.12H14.1173V0.799998H10.1173ZM12.1173 3.12H5.20531V7.12H12.1173V3.12ZM3.41646 4.22557L3.30846 4.44158L6.88617 6.23042L6.99417 6.01442L3.41646 4.22557ZM3.34336 6.29707L9.10336 16.8091L12.6113 14.8869L6.85126 4.37493L3.34336 6.29707ZM9.10994 16.821C10.2735 18.9106 10.6213 20.1247 10.6213 20.672H14.6213C14.6213 19.0113 13.7931 17.0094 12.6047 14.875L9.10994 16.821ZM10.6213 20.672C10.6213 22.6162 10.0082 23.6981 9.06075 24.3627L11.3579 27.6373C13.6264 26.0459 14.6213 23.5758 14.6213 20.672H10.6213ZM10.2093 24H0.669313V28H10.2093V24ZM2.66931 26V21.824H-1.33069V26H2.66931ZM0.669313 23.824H8.12131V19.824H0.669313V23.824ZM9.91017 22.7184L10.0182 22.5024L6.44046 20.7136L6.33246 20.9296L9.91017 22.7184ZM9.97635 20.6344L3.49635 9.00642L0.00227524 10.9536L6.48228 22.5816L9.97635 20.6344ZM3.49645 9.0066C2.61048 7.41639 2.34531 6.41375 2.34531 5.876H-1.65469C-1.65469 7.45025 -0.98385 9.18361 0.00217655 10.9534L3.49645 9.0066ZM2.34531 5.876C2.34531 4.90488 2.54725 4.24408 2.83038 3.78521C3.10527 3.3397 3.54108 2.94624 4.26004 2.64047L2.69458 -1.04047C1.32555 -0.45824 0.195352 0.438293 -0.57376 1.68478C-1.33463 2.91792 -1.65469 4.35112 -1.65469 5.876H2.34531ZM15.3272 11.384H17.3272V9.384H15.3272V11.384ZM12.8432 11.384H10.8432V13.384H12.8432V11.384ZM12.8432 7.604V5.604H10.8432V7.604H12.8432ZM15.3272 7.604V9.604H17.3272V7.604H15.3272ZM15.3272 2.6V0.599999H13.3272V2.6H15.3272ZM20.1152 2.6H22.1152V0.599999H20.1152V2.6ZM20.1152 7.604H18.1152V9.604H20.1152V7.604ZM23.0672 7.604H25.0672V5.604H23.0672V7.604ZM23.0672 11.384V13.384H25.0672V11.384H23.0672ZM20.1152 11.384V9.384H18.1152V11.384H20.1152ZM20.8712 22.22L19.3398 23.5064L19.9392 24.22H20.8712V22.22ZM23.0672 22.22H25.0672V20.22H23.0672V22.22ZM23.0672 26V28H25.0672V26H23.0672ZM17.9552 26L16.5975 27.4685L17.1723 28H17.9552V26ZM15.6512 22.184L13.6854 22.5526L13.6875 22.563L15.6512 22.184ZM17.3272 17.972V11.384H13.3272V17.972H17.3272ZM15.3272 9.384H12.8432V13.384H15.3272V9.384ZM14.8432 11.384V7.604H10.8432V11.384H14.8432ZM12.8432 9.604H15.3272V5.604H12.8432V9.604ZM17.3272 7.604V2.6H13.3272V7.604H17.3272ZM15.3272 4.6H20.1152V0.599999H15.3272V4.6ZM18.1152 2.6V7.604H22.1152V2.6H18.1152ZM20.1152 9.604H23.0672V5.604H20.1152V9.604ZM21.0672 7.604V11.384H25.0672V7.604H21.0672ZM23.0672 9.384H20.1152V13.384H23.0672V9.384ZM18.1152 11.384V19.124H22.1152V11.384H18.1152ZM18.1152 19.124C18.1152 20.7005 18.3633 22.3438 19.3398 23.5064L22.4026 20.9336C22.4058 20.9374 22.3248 20.8398 22.2471 20.5216C22.1703 20.2068 22.1152 19.7516 22.1152 19.124H18.1152ZM20.8712 24.22H23.0672V20.22H20.8712V24.22ZM21.0672 22.22V26H25.0672V22.22H21.0672ZM23.0672 24H17.9552V28H23.0672V24ZM19.3129 24.5315C18.2766 23.5734 17.7803 22.6618 17.615 21.805L13.6875 22.563C14.0501 24.4422 15.0898 26.0746 16.5975 27.4685L19.3129 24.5315ZM17.617 21.8154C17.4309 20.8232 17.3272 19.5506 17.3272 17.972H13.3272C13.3272 19.7054 13.4395 21.2408 13.6855 22.5526L17.617 21.8154ZM33.4265 11.384L34.8829 10.0133L34.2906 9.384H33.4265V11.384ZM30.7265 11.384V9.384H29.7898L29.1901 10.1036L30.7265 11.384ZM29.8265 13.184L27.9175 12.5874L27.909 12.6149L27.9012 12.6425L29.8265 13.184ZM29.5025 15.416H27.5025V17.416H29.5025V15.416ZM34.6505 15.416V17.416H36.5216L36.6461 15.549L34.6505 15.416ZM34.3625 13.184L32.4485 13.764L32.451 13.7723L32.4535 13.7805L34.3625 13.184ZM38.3225 22.22H40.3225V20.22H38.3225V22.22ZM38.3225 26V28H40.3225V26H38.3225ZM29.1785 26L28.0636 27.6604L28.5694 28H29.1785V26ZM25.6145 21.824L23.7575 22.5668L23.764 22.5829L23.7707 22.5989L25.6145 21.824ZM29.0705 7.604V5.604H28.4212L27.8957 5.9854L29.0705 7.604ZM34.9025 7.604L36.0831 5.98966L35.5558 5.604H34.9025V7.604ZM38.1785 11.348L36.3454 12.1479L36.3454 12.1479L38.1785 11.348ZM38.7185 18.8V20.8H40.3185L40.6697 19.239L38.7185 18.8ZM29.7545 18.8V16.8H27.4767L27.7713 19.0587L29.7545 18.8ZM30.3665 20.708L28.5541 21.5538L28.5714 21.5907L28.5901 21.6268L30.3665 20.708ZM31.5185 22.22L30.3036 23.8087L30.8414 24.22H31.5185V22.22ZM33.4265 9.384H30.7265V13.384H33.4265V9.384ZM29.1901 10.1036C28.6065 10.8039 28.2047 11.6686 27.9175 12.5874L31.7355 13.7805C31.9283 13.1634 32.1265 12.8281 32.2629 12.6644L29.1901 10.1036ZM27.9012 12.6425C27.6409 13.5679 27.5025 14.4944 27.5025 15.416H31.5025C31.5025 14.8976 31.5801 14.3361 31.7518 13.7255L27.9012 12.6425ZM29.5025 17.416H34.6505V13.416H29.5025V17.416ZM36.6461 15.549C36.7123 14.5558 36.5767 13.5642 36.2715 12.5875L32.4535 13.7805C32.6283 14.3398 32.6847 14.8362 32.6549 15.283L36.6461 15.549ZM36.2765 12.604C35.9864 11.6463 35.555 10.7274 34.8829 10.0133L31.9701 12.7547C32.066 12.8566 32.2586 13.1377 32.4485 13.764L36.2765 12.604ZM36.3225 22.22V26H40.3225V22.22H36.3225ZM38.3225 24H29.1785V28H38.3225V24ZM30.2934 24.3396C28.8952 23.4008 27.9843 22.3008 27.4583 21.0491L23.7707 22.5989C24.6367 24.6592 26.1018 26.3432 28.0636 27.6604L30.2934 24.3396ZM27.4715 21.0812C26.888 19.6227 26.6065 18.1821 26.6065 16.748H22.6065C22.6065 18.7219 22.997 20.6653 23.7575 22.5668L27.4715 21.0812ZM26.6065 16.748C26.6065 13.3998 27.8289 10.9764 30.2453 9.2226L27.8957 5.9854C24.3601 8.5516 22.6065 12.2242 22.6065 16.748H26.6065ZM29.0705 9.604H34.9025V5.604H29.0705V9.604ZM33.7219 9.21834C35.1487 10.2619 35.9551 11.2534 36.3454 12.1479L40.0116 10.5481C39.2499 8.80258 37.8723 7.29813 36.0831 5.98966L33.7219 9.21834ZM36.3454 12.1479C36.8193 13.2339 37.0425 14.2946 37.0425 15.344H41.0425C41.0425 13.7054 40.6897 12.1021 40.0116 10.5481L36.3454 12.1479ZM37.0425 15.344C37.0425 16.59 36.9415 17.5866 36.7673 18.361L40.6697 19.239C40.9275 18.0934 41.0425 16.786 41.0425 15.344H37.0425ZM38.7185 16.8H29.7545V20.8H38.7185V16.8ZM27.7713 19.0587C27.8785 19.8804 28.1652 20.7204 28.5541 21.5538L32.1789 19.8622C31.8958 19.2556 31.7745 18.8236 31.7377 18.5413L27.7713 19.0587ZM28.5901 21.6268C29.021 22.4601 29.5708 23.2483 30.3036 23.8087L32.7334 20.6313C32.6502 20.5677 32.432 20.3479 32.1429 19.7892L28.5901 21.6268ZM31.5185 24.22H38.3225V20.22H31.5185V24.22ZM41.4942 26H39.4942V28H41.4942V26ZM41.4942 7.604V5.604H39.4942V7.604H41.4942ZM44.9142 7.604L46.7291 6.76375L46.1922 5.604H44.9142V7.604ZM45.8142 9.548L43.9992 10.3882L45.4152 13.4467L47.4213 10.7385L45.8142 9.548ZM50.8542 7.604H52.8542V5.604H50.8542V7.604ZM50.8542 12.428V14.428H52.8542V12.428H50.8542ZM46.2822 12.428V10.428H44.2822V12.428H46.2822ZM46.2822 26V28H48.2822V26H46.2822ZM43.4942 26V7.604H39.4942V26H43.4942ZM41.4942 9.604H44.9142V5.604H41.4942V9.604ZM43.0992 8.44425L43.9992 10.3882L47.6291 8.70775L46.7291 6.76375L43.0992 8.44425ZM47.4213 10.7385C48.0484 9.89182 48.6908 9.604 49.4502 9.604V5.604C47.2815 5.604 45.4999 6.61218 44.207 8.35754L47.4213 10.7385ZM49.4502 9.604H50.8542V5.604H49.4502V9.604ZM48.8542 7.604V12.428H52.8542V7.604H48.8542ZM50.8542 10.428H46.2822V14.428H50.8542V10.428ZM44.2822 12.428V26H48.2822V12.428H44.2822ZM46.2822 24H41.4942V28H46.2822V24ZM60.5671 11.384L62.0235 10.0133L61.4313 9.384H60.5671V11.384ZM57.8671 11.384V9.384H56.9304L56.3307 10.1036L57.8671 11.384ZM56.9671 13.184L55.0582 12.5874L55.0496 12.6149L55.0418 12.6425L56.9671 13.184ZM56.6431 15.416H54.6431V17.416H56.6431V15.416ZM61.7911 15.416V17.416H63.6622L63.7867 15.549L61.7911 15.416ZM61.5031 13.184L59.5891 13.764L59.5916 13.7723L59.5942 13.7805L61.5031 13.184ZM65.4631 22.22H67.4631V20.22H65.4631V22.22ZM65.4631 26V28H67.4631V26H65.4631ZM56.3191 26L55.2043 27.6604L55.71 28H56.3191V26ZM52.7551 21.824L50.8982 22.5668L50.9046 22.5829L50.9114 22.5989L52.7551 21.824ZM56.2111 7.604V5.604H55.5618L55.0363 5.9854L56.2111 7.604ZM62.0431 7.604L63.2238 5.98966L62.6964 5.604H62.0431V7.604ZM65.3191 11.348L63.486 12.1479L63.486 12.1479L65.3191 11.348ZM65.8591 18.8V20.8H67.4591L67.8103 19.239L65.8591 18.8ZM56.8951 18.8V16.8H54.6173L54.9119 19.0587L56.8951 18.8ZM57.5071 20.708L55.6948 21.5538L55.712 21.5907L55.7307 21.6268L57.5071 20.708ZM58.6591 22.22L57.4442 23.8087L57.9821 24.22H58.6591V22.22ZM60.5671 9.384H57.8671V13.384H60.5671V9.384ZM56.3307 10.1036C55.7471 10.8039 55.3453 11.6686 55.0582 12.5874L58.8761 13.7805C59.0689 13.1634 59.2671 12.8281 59.4036 12.6644L56.3307 10.1036ZM55.0418 12.6425C54.7815 13.5679 54.6431 14.4944 54.6431 15.416H58.6431C58.6431 14.8976 58.7207 14.3361 58.8924 13.7255L55.0418 12.6425ZM56.6431 17.416H61.7911V13.416H56.6431V17.416ZM63.7867 15.549C63.8529 14.5558 63.7173 13.5642 63.4121 12.5875L59.5942 13.7805C59.7689 14.3398 59.8253 14.8362 59.7956 15.283L63.7867 15.549ZM63.4172 12.604C63.127 11.6463 62.6956 10.7274 62.0235 10.0133L59.1107 12.7547C59.2066 12.8566 59.3993 13.1377 59.5891 13.764L63.4172 12.604ZM63.4631 22.22V26H67.4631V22.22H63.4631ZM65.4631 24H56.3191V28H65.4631V24ZM57.434 24.3396C56.0358 23.4008 55.125 22.3008 54.5989 21.0491L50.9114 22.5989C51.7773 24.6592 53.2424 26.3432 55.2043 27.6604L57.434 24.3396ZM54.6121 21.0812C54.0287 19.6227 53.7471 18.1821 53.7471 16.748H49.7471C49.7471 18.7219 50.1376 20.6653 50.8982 22.5668L54.6121 21.0812ZM53.7471 16.748C53.7471 13.3998 54.9696 10.9764 57.3859 9.2226L55.0363 5.9854C51.5007 8.5516 49.7471 12.2242 49.7471 16.748H53.7471ZM56.2111 9.604H62.0431V5.604H56.2111V9.604ZM60.8625 9.21834C62.2893 10.2619 63.0957 11.2534 63.486 12.1479L67.1522 10.5481C66.3905 8.80258 65.0129 7.29813 63.2238 5.98966L60.8625 9.21834ZM63.486 12.1479C63.9599 13.2339 64.1831 14.2946 64.1831 15.344H68.1831C68.1831 13.7054 67.8303 12.1021 67.1522 10.5481L63.486 12.1479ZM64.1831 15.344C64.1831 16.59 64.0821 17.5866 63.9079 18.361L67.8103 19.239C68.0681 18.0934 68.1831 16.786 68.1831 15.344H64.1831ZM65.8591 16.8H56.8951V20.8H65.8591V16.8ZM54.9119 19.0587C55.0191 19.8804 55.3059 20.7204 55.6948 21.5538L59.3195 19.8622C59.0364 19.2556 58.9151 18.8236 58.8783 18.5413L54.9119 19.0587ZM55.7307 21.6268C56.1617 22.4601 56.7114 23.2483 57.4442 23.8087L59.874 20.6313C59.7909 20.5677 59.5726 20.3479 59.2836 19.7892L55.7307 21.6268ZM58.6591 24.22H65.4631V20.22H58.6591V24.22ZM79.5428 26V28H80.329L80.9048 27.4645L79.5428 26ZM71.6948 26L70.3328 27.4645L70.9085 28H71.6948V26ZM68.8868 11.78L67.0193 11.0641L67.0141 11.0778L67.009 11.0915L68.8868 11.78ZM71.4788 7.604V5.604H70.5712L69.9736 6.28699L71.4788 7.604ZM79.9028 7.604L81.4142 6.29414L80.816 5.604H79.9028V7.604ZM82.4588 11.816L80.5614 12.4485L80.5648 12.4586L82.4588 11.816ZM74.2508 22.22L72.5143 23.2123L73.0901 24.22H74.2508V22.22ZM76.9868 22.22V24.22H78.2072L78.7654 23.1347L76.9868 22.22ZM76.9508 11.384L78.5907 10.2392L77.9937 9.384H76.9508V11.384ZM74.2508 11.384V9.384H73.2145L72.6168 10.2306L74.2508 11.384ZM79.5428 24H71.6948V28H79.5428V24ZM73.0568 24.5355C71.1367 22.7497 70.0948 20.2727 70.0948 16.856H66.0948C66.0948 21.1673 67.4529 24.7863 70.3328 27.4645L73.0568 24.5355ZM70.0948 16.856C70.0948 15.0868 70.3358 13.6379 70.7645 12.4685L67.009 11.0915C66.3818 12.8021 66.0948 14.7372 66.0948 16.856H70.0948ZM70.7543 12.4959C71.2097 11.3078 71.9391 10.1151 72.9839 8.92101L69.9736 6.28699C68.6665 7.78087 67.6679 9.37216 67.0193 11.0641L70.7543 12.4959ZM71.4788 9.604H79.9028V5.604H71.4788V9.604ZM78.3914 8.91386C79.5199 10.216 80.2104 11.3954 80.5614 12.4485L84.3561 11.1835C83.7952 9.50057 82.7816 7.872 81.4142 6.29414L78.3914 8.91386ZM80.5648 12.4586C80.9279 13.5287 81.1428 14.9744 81.1428 16.856H85.1428C85.1428 14.7056 84.9017 12.7913 84.3527 11.1734L80.5648 12.4586ZM81.1428 16.856C81.1428 20.2727 80.1009 22.7497 78.1808 24.5355L80.9048 27.4645C83.7847 24.7863 85.1428 21.1673 85.1428 16.856H81.1428ZM74.2508 24.22H76.9868V20.22H74.2508V24.22ZM78.7654 23.1347C79.7929 21.1366 80.2828 18.9082 80.2828 16.496H76.2828C76.2828 18.3558 75.9086 19.9434 75.2082 21.3053L78.7654 23.1347ZM80.2828 16.496C80.2828 14.1008 79.7865 11.952 78.5907 10.2392L75.3109 12.5288C75.8911 13.36 76.2828 14.6192 76.2828 16.496H80.2828ZM76.9508 9.384H74.2508V13.384H76.9508V9.384ZM72.6168 10.2306C71.4219 11.9235 70.9548 14.1319 70.9548 16.604H74.9548C74.9548 14.5641 75.3517 13.2925 75.8847 12.5374L72.6168 10.2306ZM70.9548 16.604C70.9548 19.0881 71.4355 21.3244 72.5143 23.2123L75.9873 21.2277C75.338 20.0916 74.9548 18.5839 74.9548 16.604H70.9548ZM100.846 14.48V16.48H102.419L102.789 14.9504L100.846 14.48ZM102.754 6.596L100.821 6.07993L100.815 6.10268L100.81 6.12556L102.754 6.596ZM104.302 0.799998V-1.2H102.766L102.369 0.283926L104.302 0.799998ZM108.802 0.799998L110.797 0.671692L110.677 -1.2H108.802V0.799998ZM110.422 26V28H112.554L112.417 25.8717L110.422 26ZM105.706 26L103.708 26.0994L103.803 28H105.706V26ZM105.022 12.248L107.019 12.1486L106.924 10.248H105.022V12.248ZM104.842 12.248V10.248H103.288L102.904 11.7532L104.842 12.248ZM102.25 22.4V24.4H103.803L104.187 22.8948L102.25 22.4ZM99.2975 22.4L97.3597 22.8948L97.744 24.4H99.2975V22.4ZM96.7055 12.248L98.6433 11.7532L98.259 10.248H96.7055V12.248ZM96.5255 12.248V10.248H94.6225L94.528 12.1486L96.5255 12.248ZM95.8415 26V28H97.7445L97.839 26.0994L95.8415 26ZM91.1255 26L89.1296 25.8717L88.9928 28H91.1255V26ZM92.7455 0.799998V-1.2H90.8699L90.7496 0.671692L92.7455 0.799998ZM97.2455 0.799998L99.1778 0.283926L98.7814 -1.2H97.2455V0.799998ZM98.7935 6.596L100.737 6.12556L100.732 6.10268L100.726 6.07993L98.7935 6.596ZM100.702 14.48L98.7576 14.9504L99.1278 16.48H100.702V14.48ZM100.846 12.48H100.702V16.48H100.846V12.48ZM100.702 16.48H100.846V12.48H100.702V16.48ZM102.789 14.9504L104.697 7.06644L100.81 6.12556L98.9016 14.0096L102.789 14.9504ZM104.686 7.11207L106.234 1.31607L102.369 0.283926L100.821 6.07993L104.686 7.11207ZM104.302 2.8H108.802V-1.2H104.302V2.8ZM106.806 0.928305L108.426 26.1283L112.417 25.8717L110.797 0.671692L106.806 0.928305ZM110.422 24H105.706V28H110.422V24ZM107.703 25.9006L107.019 12.1486L103.024 12.3474L103.708 26.0994L107.703 25.9006ZM105.022 10.248H104.842V14.248H105.022V10.248ZM102.904 11.7532L100.312 21.9052L104.187 22.8948L106.779 12.7428L102.904 11.7532ZM102.25 20.4H99.2975V24.4H102.25V20.4ZM101.235 21.9052L98.6433 11.7532L94.7677 12.7428L97.3597 22.8948L101.235 21.9052ZM96.7055 10.248H96.5255V14.248H96.7055V10.248ZM94.528 12.1486L93.844 25.9006L97.839 26.0994L98.523 12.3474L94.528 12.1486ZM95.8415 24H91.1255V28H95.8415V24ZM93.1214 26.1283L94.7414 0.928305L90.7496 0.671692L89.1296 25.8717L93.1214 26.1283ZM92.7455 2.8H97.2455V-1.2H92.7455V2.8ZM95.3132 1.31607L96.8612 7.11207L100.726 6.07993L99.1778 0.283926L95.3132 1.31607ZM96.8496 7.06644L98.7576 14.9504L102.645 14.0096L100.737 6.12556L96.8496 7.06644ZM100.702 16.48H100.846V12.48H100.702V16.48ZM121.818 17.684H123.818V15.684H121.818V17.684ZM117.966 17.684V15.684H117.01L116.41 16.4273L117.966 17.684ZM118.002 22.22L116.588 23.6342L117.173 24.22H118.002V22.22ZM121.818 22.22V24.22H123.818V22.22H121.818ZM114.078 7.604V5.604H112.078V7.604H114.078ZM123.006 7.604L124.035 5.88901L123.56 5.604H123.006V7.604ZM125.85 10.592L123.996 11.3416L123.998 11.3486L124.001 11.3555L125.85 10.592ZM126.678 26V28H128.797L128.674 25.8843L126.678 26ZM122.574 26L120.785 26.8944L121.338 28H122.574V26ZM121.926 24.704L123.715 23.8096L122.525 21.4295L120.569 23.2344L121.926 24.704ZM115.698 26L114.597 27.6701L115.098 28H115.698V26ZM115.77 14.192V12.192H115.138L114.622 12.5544L115.77 14.192ZM121.782 15.056L120.628 16.6899L123.782 18.9158V15.056H121.782ZM120.558 11.384L121.272 9.5159L120.927 9.384H120.558V11.384ZM114.078 11.384H112.078V13.384H114.078V11.384ZM121.818 15.684H117.966V19.684H121.818V15.684ZM116.41 16.4273C115.572 17.4647 115.21 18.7106 115.21 20.024H119.21C119.21 19.4654 119.351 19.1513 119.522 18.9407L116.41 16.4273ZM115.21 20.024C115.21 21.3485 115.595 22.6415 116.588 23.6342L119.416 20.8058C119.353 20.7425 119.21 20.5715 119.21 20.024H115.21ZM118.002 24.22H121.818V20.22H118.002V24.22ZM123.818 22.22V17.684H119.818V22.22H123.818ZM114.078 9.604H123.006V5.604H114.078V9.604ZM121.977 9.31898C123.183 10.0428 123.754 10.7446 123.996 11.3416L127.704 9.84242C127.033 8.18336 125.708 6.89316 124.035 5.88901L121.977 9.31898ZM124.001 11.3555C124.315 12.1149 124.534 13.3298 124.534 15.128H128.534C128.534 13.0862 128.297 11.2771 127.698 9.82848L124.001 11.3555ZM124.534 15.128V20.528H128.534V15.128H124.534ZM124.534 20.528C124.534 22.5512 124.582 24.4145 124.681 26.1157L128.674 25.8843C128.581 24.2735 128.534 22.4888 128.534 20.528H124.534ZM126.678 24H122.574V28H126.678V24ZM124.363 25.1056L123.715 23.8096L120.137 25.5984L120.785 26.8944L124.363 25.1056ZM120.569 23.2344C120.113 23.6558 119.34 24 117.966 24V28C119.999 28 121.867 27.4802 123.282 26.1736L120.569 23.2344ZM117.966 24H115.698V28H117.966V24ZM116.798 24.3299C115.341 23.3697 114.638 22.077 114.638 20.204H110.638C110.638 23.371 111.975 25.9423 114.597 27.6701L116.798 24.3299ZM114.638 20.204C114.638 18.314 115.362 16.9203 116.918 15.8296L114.622 12.5544C112.001 14.3917 110.638 17.006 110.638 20.204H114.638ZM115.77 16.192H119.154V12.192H115.77V16.192ZM119.154 16.192C119.648 16.192 120.126 16.3352 120.628 16.6899L122.935 13.4221C121.806 12.6248 120.531 12.192 119.154 12.192V16.192ZM123.782 15.056V13.256H119.782V15.056H123.782ZM123.782 13.256C123.782 12.4984 123.615 11.703 123.15 10.9915C122.677 10.2693 122.004 9.79564 121.272 9.5159L119.843 13.2521C119.892 13.2705 119.897 13.2793 119.878 13.2652C119.869 13.2583 119.856 13.2473 119.842 13.2318C119.828 13.2163 119.814 13.1989 119.802 13.1805C119.79 13.1622 119.782 13.146 119.776 13.1338C119.771 13.1218 119.77 13.116 119.77 13.1186C119.772 13.1244 119.782 13.1661 119.782 13.256H123.782ZM120.558 9.384H114.078V13.384H120.558V9.384ZM116.078 11.384V7.604H112.078V11.384H116.078ZM143.562 26V28H145.562V26H143.562ZM139.926 26L138.137 26.8944L138.69 28H139.926V26ZM139.278 24.704L141.067 23.8096L139.886 21.4482L137.933 23.2241L139.278 24.704ZM137.766 25.712L137.023 23.855L137.007 23.8617L136.99 23.8687L137.766 25.712ZM132.546 26L131.165 27.4467L131.745 28H132.546V26ZM130.026 22.04L128.149 22.7301L128.153 22.7422L128.158 22.7543L130.026 22.04ZM130.026 11.384L128.196 10.5775L128.19 10.5906L128.185 10.6037L130.026 11.384ZM132.654 7.604V5.604H131.838L131.255 6.17466L132.654 7.604ZM138.774 8.612L137.433 10.0962L140.774 13.1135V8.612H138.774ZM138.774 0.799998V-1.2H136.774V0.799998H138.774ZM143.562 0.799998H145.562V-1.2H143.562V0.799998ZM138.774 11.384H140.774V9.384H138.774V11.384ZM135.318 11.384V9.384H134.173L133.593 10.3712L135.318 11.384ZM135.282 22.22L133.609 23.3153L134.201 24.22H135.282V22.22ZM138.774 22.22V24.22H140.774V22.22H138.774ZM143.562 24H139.926V28H143.562V24ZM141.715 25.1056L141.067 23.8096L137.489 25.5984L138.137 26.8944L141.715 25.1056ZM137.933 23.2241C137.519 23.6002 137.215 23.7785 137.023 23.855L138.509 27.569C139.277 27.2615 139.981 26.7678 140.623 26.1839L137.933 23.2241ZM136.99 23.8687C136.911 23.9018 136.543 24 135.678 24V28C136.685 28 137.709 27.9062 138.542 27.5553L136.99 23.8687ZM135.678 24H132.546V28H135.678V24ZM133.927 24.5533C133.124 23.7867 132.433 22.7343 131.894 21.3257L128.158 22.7543C128.867 24.6097 129.856 26.1973 131.165 27.4467L133.927 24.5533ZM131.903 21.3499C131.396 19.9711 131.126 18.3854 131.126 16.568H127.126C127.126 18.7826 127.456 20.8449 128.149 22.7301L131.903 21.3499ZM131.126 16.568C131.126 14.7131 131.4 13.2671 131.868 12.1643L128.185 10.6037C127.452 12.3329 127.126 14.3429 127.126 16.568H131.126ZM131.856 12.1905C132.375 11.0124 133.103 9.96274 134.053 9.03334L131.255 6.17466C129.949 7.45325 128.925 8.92357 128.196 10.5775L131.856 12.1905ZM132.654 9.604H135.75V5.604H132.654V9.604ZM135.75 9.604C136.665 9.604 137.148 9.83824 137.433 10.0962L140.115 7.12779C138.912 6.04176 137.38 5.604 135.75 5.604V9.604ZM140.774 8.612V0.799998H136.774V8.612H140.774ZM138.774 2.8H143.562V-1.2H138.774V2.8ZM141.562 0.799998V26H145.562V0.799998H141.562ZM138.774 9.384H135.318V13.384H138.774V9.384ZM133.593 10.3712C132.484 12.2603 131.986 14.491 131.986 16.964H135.986C135.986 15.021 136.376 13.5317 137.043 12.3968L133.593 10.3712ZM131.986 16.964C131.986 19.3927 132.464 21.567 133.609 23.3153L136.955 21.1247C136.372 20.233 135.986 18.9033 135.986 16.964H131.986ZM135.282 24.22H138.774V20.22H135.282V24.22ZM140.774 22.22V11.384H136.774V22.22H140.774ZM158.454 7.604L160.026 6.36836L159.426 5.604H158.454V7.604ZM161.19 26V28H163.19V26H161.19ZM156.402 26H154.402V28H156.402V26ZM155.466 11.384L157.166 10.3313L156.58 9.384H155.466V11.384ZM151.434 11.384V9.384H149.434V11.384H151.434ZM151.434 26V28H153.434V26H151.434ZM146.646 26H144.646V28H146.646V26ZM146.646 7.604V5.604H144.646V7.604H146.646ZM150.39 7.604L152.179 6.70957L151.626 5.604H150.39V7.604ZM151.038 8.9L149.249 9.79443L150.429 12.1558L152.383 10.3799L151.038 8.9ZM152.514 7.892L151.771 6.03505L151.754 6.04174L151.738 6.04873L152.514 7.892ZM154.638 9.604H158.454V5.604H154.638V9.604ZM156.881 8.83964C157.812 10.0239 158.392 11.1396 158.691 12.1854L162.537 11.0866C162.068 9.44444 161.208 7.87207 160.026 6.36836L156.881 8.83964ZM158.691 12.1854C159.006 13.2911 159.19 14.7714 159.19 16.676H163.19C163.19 14.5486 162.989 12.6689 162.537 11.0866L158.691 12.1854ZM159.19 16.676V26H163.19V16.676H159.19ZM161.19 24H156.402V28H161.19V24ZM158.402 26V16.316H154.402V26H158.402ZM158.402 16.316C158.402 13.9513 158.096 11.8332 157.166 10.3313L153.765 12.4367C154.083 12.9508 154.402 14.1207 154.402 16.316H158.402ZM155.466 9.384H151.434V13.384H155.466V9.384ZM149.434 11.384V26H153.434V11.384H149.434ZM151.434 24H146.646V28H151.434V24ZM148.646 26V7.604H144.646V26H148.646ZM146.646 9.604H150.39V5.604H146.646V9.604ZM148.601 8.49843L149.249 9.79443L152.827 8.00557L152.179 6.70957L148.601 8.49843ZM152.383 10.3799C152.811 9.99087 153.113 9.80968 153.29 9.73527L151.738 6.04873C151.002 6.35832 150.32 6.84912 149.692 7.42012L152.383 10.3799ZM153.256 9.74895C153.381 9.69932 153.784 9.604 154.638 9.604V5.604C153.62 5.604 152.607 5.70068 151.771 6.03505L153.256 9.74895ZM172.469 11.384L173.926 10.0133L173.334 9.384H172.469V11.384ZM169.769 11.384V9.384H168.833L168.233 10.1036L169.769 11.384ZM168.869 13.184L166.961 12.5874L166.952 12.6149L166.944 12.6425L168.869 13.184ZM168.545 15.416H166.545V17.416H168.545V15.416ZM173.693 15.416V17.416H175.565L175.689 15.549L173.693 15.416ZM173.405 13.184L171.491 13.764L171.494 13.7723L171.497 13.7805L173.405 13.184ZM177.365 22.22H179.365V20.22H177.365V22.22ZM177.365 26V28H179.365V26H177.365ZM168.221 26L167.107 27.6604L167.612 28H168.221V26ZM164.657 21.824L162.801 22.5668L162.807 22.5829L162.814 22.5989L164.657 21.824ZM168.113 7.604V5.604H167.464L166.939 5.9854L168.113 7.604ZM173.945 7.604L175.126 5.98966L174.599 5.604H173.945V7.604ZM177.221 11.348L175.388 12.1479L175.388 12.1479L177.221 11.348ZM177.761 18.8V20.8H179.361L179.713 19.239L177.761 18.8ZM168.797 18.8V16.8H166.52L166.814 19.0587L168.797 18.8ZM169.409 20.708L167.597 21.5538L167.614 21.5907L167.633 21.6268L169.409 20.708ZM170.561 22.22L169.347 23.8087L169.884 24.22H170.561V22.22ZM172.469 9.384H169.769V13.384H172.469V9.384ZM168.233 10.1036C167.649 10.8039 167.248 11.6686 166.961 12.5874L170.778 13.7805C170.971 13.1634 171.169 12.8281 171.306 12.6644L168.233 10.1036ZM166.944 12.6425C166.684 13.5679 166.545 14.4944 166.545 15.416H170.545C170.545 14.8976 170.623 14.3361 170.795 13.7255L166.944 12.6425ZM168.545 17.416H173.693V13.416H168.545V17.416ZM175.689 15.549C175.755 14.5558 175.62 13.5642 175.314 12.5875L171.497 13.7805C171.671 14.3398 171.728 14.8362 171.698 15.283L175.689 15.549ZM175.32 12.604C175.029 11.6463 174.598 10.7274 173.926 10.0133L171.013 12.7547C171.109 12.8566 171.302 13.1377 171.491 13.764L175.32 12.604ZM175.365 22.22V26H179.365V22.22H175.365ZM177.365 24H168.221V28H177.365V24ZM169.336 24.3396C167.938 23.4008 167.027 22.3008 166.501 21.0491L162.814 22.5989C163.68 24.6592 165.145 26.3432 167.107 27.6604L169.336 24.3396ZM166.514 21.0812C165.931 19.6227 165.649 18.1821 165.649 16.748H161.649C161.649 18.7219 162.04 20.6653 162.801 22.5668L166.514 21.0812ZM165.649 16.748C165.649 13.3998 166.872 10.9764 169.288 9.2226L166.939 5.9854C163.403 8.5516 161.649 12.2242 161.649 16.748H165.649ZM168.113 9.604H173.945V5.604H168.113V9.604ZM172.765 9.21834C174.192 10.2619 174.998 11.2534 175.388 12.1479L179.055 10.5481C178.293 8.80258 176.915 7.29813 175.126 5.98966L172.765 9.21834ZM175.388 12.1479C175.862 13.2339 176.085 14.2946 176.085 15.344H180.085C180.085 13.7054 179.733 12.1021 179.055 10.5481L175.388 12.1479ZM176.085 15.344C176.085 16.59 175.984 17.5866 175.81 18.361L179.713 19.239C179.97 18.0934 180.085 16.786 180.085 15.344H176.085ZM177.761 16.8H168.797V20.8H177.761V16.8ZM166.814 19.0587C166.921 19.8804 167.208 20.7204 167.597 21.5538L171.222 19.8622C170.939 19.2556 170.817 18.8236 170.781 18.5413L166.814 19.0587ZM167.633 21.6268C168.064 22.4601 168.614 23.2483 169.347 23.8087L171.776 20.6313C171.693 20.5677 171.475 20.3479 171.186 19.7892L167.633 21.6268ZM170.561 24.22H177.365V20.22H170.561V24.22ZM181.739 7.604V5.604H181.321L180.938 5.77109L181.739 7.604ZM189.695 7.604H191.695V5.604H189.695V7.604ZM189.695 11.384V13.384H191.695V11.384H189.695ZM184.079 11.384V9.384H180.32L182.42 12.5015L184.079 11.384ZM187.499 16.46L185.84 17.5775L185.851 17.5941L185.863 17.6105L187.499 16.46ZM190.055 20.96L188.096 21.3633L188.104 21.4044L188.114 21.4451L190.055 20.96ZM188.291 26V28H188.906L189.414 27.6544L188.291 26ZM179.111 26H177.111V28H179.111V26ZM179.111 22.22V20.22H177.111V22.22H179.111ZM185.699 22.22V24.22H189.482L187.351 21.0937L185.699 22.22ZM181.847 16.568L180.159 17.6418L180.176 17.6683L180.194 17.6943L181.847 16.568ZM181.055 15.452L179.416 16.5989L179.435 16.6258L179.455 16.652L181.055 15.452ZM180.263 14.3L178.559 15.3482L178.578 15.3792L178.599 15.4094L180.263 14.3ZM179.867 13.616L178.078 14.5104L178.078 14.5104L179.867 13.616ZM179.579 13.076L177.79 13.9704L177.809 14.0093L177.83 14.0473L179.579 13.076ZM179.327 12.464L177.37 12.876L177.384 12.9453L177.404 13.0134L179.327 12.464ZM181.739 9.604H189.695V5.604H181.739V9.604ZM187.695 7.604V11.384H191.695V7.604H187.695ZM189.695 9.384H184.079V13.384H189.695V9.384ZM182.42 12.5015L185.84 17.5775L189.157 15.3425L185.737 10.2665L182.42 12.5015ZM185.863 17.6105C186.611 18.6751 187.169 19.5381 187.551 20.2108C187.741 20.5464 187.878 20.8161 187.97 21.0259C188.016 21.1297 188.047 21.2109 188.068 21.2716C188.078 21.3015 188.085 21.3243 188.09 21.3404C188.094 21.3566 188.096 21.364 188.096 21.3633L192.014 20.5567C191.863 19.8234 191.472 19.0157 191.029 18.2352C190.559 17.4079 189.922 16.4289 189.135 15.3095L185.863 17.6105ZM188.114 21.4451C188.169 21.6656 188.199 21.8985 188.199 22.148H192.199C192.199 21.5815 192.132 21.0224 191.995 20.4749L188.114 21.4451ZM188.199 22.148C188.199 23.2735 187.825 23.8987 187.167 24.3456L189.414 27.6544C191.301 26.3733 192.199 24.4305 192.199 22.148H188.199ZM188.291 24H179.111V28H188.291V24ZM181.111 26V22.22H177.111V26H181.111ZM179.111 24.22H185.699V20.22H179.111V24.22ZM187.351 21.0937L183.499 15.4417L180.194 17.6943L184.046 23.3463L187.351 21.0937ZM183.534 15.4942C183.324 15.1641 183.023 14.7431 182.655 14.252L179.455 16.652C179.806 17.1209 180.033 17.4438 180.159 17.6418L183.534 15.4942ZM182.693 14.3051C182.361 13.8303 182.107 13.4603 181.927 13.1906L178.599 15.4094C178.803 15.7157 179.077 16.1137 179.416 16.5989L182.693 14.3051ZM181.966 13.2518C181.776 12.9432 181.685 12.7801 181.655 12.7216L178.078 14.5104C178.192 14.7399 178.365 15.0328 178.559 15.3482L181.966 13.2518ZM181.655 12.7216C181.566 12.5419 181.454 12.3342 181.327 12.1047L177.83 14.0473C177.943 14.2498 178.024 14.4021 178.078 14.5104L181.655 12.7216ZM181.367 12.1816C181.325 12.0962 181.295 12.0301 181.275 11.9815C181.254 11.9317 181.249 11.9108 181.25 11.9146L177.404 13.0134C177.498 13.3456 177.64 13.6718 177.79 13.9704L181.367 12.1816ZM181.284 12.052C181.201 11.6594 181.183 11.4394 181.183 11.348H177.183C177.183 11.8326 177.26 12.3566 177.37 12.876L181.284 12.052ZM181.183 11.348C181.183 10.8084 181.309 10.4668 181.473 10.2257C181.643 9.97664 181.952 9.69319 182.539 9.43691L180.938 5.77109C179.821 6.25881 178.852 6.97136 178.17 7.97034C177.482 8.97724 177.183 10.1356 177.183 11.348H181.183ZM194.325 7.604V5.604H193.907L193.524 5.77109L194.325 7.604ZM202.281 7.604H204.281V5.604H202.281V7.604ZM202.281 11.384V13.384H204.281V11.384H202.281ZM196.665 11.384V9.384H192.905L195.006 12.5015L196.665 11.384ZM200.085 16.46L198.426 17.5775L198.437 17.5941L198.449 17.6105L200.085 16.46ZM202.641 20.96L200.682 21.3633L200.69 21.4044L200.7 21.4451L202.641 20.96ZM200.877 26V28H201.492L202 27.6544L200.877 26ZM191.697 26H189.697V28H191.697V26ZM191.697 22.22V20.22H189.697V22.22H191.697ZM198.285 22.22V24.22H202.068L199.937 21.0937L198.285 22.22ZM194.433 16.568L192.745 17.6418L192.762 17.6683L192.78 17.6943L194.433 16.568ZM193.641 15.452L192.002 16.5989L192.021 16.6258L192.041 16.652L193.641 15.452ZM192.849 14.3L191.145 15.3482L191.164 15.3792L191.184 15.4094L192.849 14.3ZM192.453 13.616L190.664 14.5104L190.664 14.5104L192.453 13.616ZM192.165 13.076L190.376 13.9704L190.395 14.0093L190.416 14.0473L192.165 13.076ZM191.913 12.464L189.955 12.876L189.97 12.9453L189.99 13.0134L191.913 12.464ZM194.325 9.604H202.281V5.604H194.325V9.604ZM200.281 7.604V11.384H204.281V7.604H200.281ZM202.281 9.384H196.665V13.384H202.281V9.384ZM195.006 12.5015L198.426 17.5775L201.743 15.3425L198.323 10.2665L195.006 12.5015ZM198.449 17.6105C199.197 18.6751 199.754 19.5381 200.137 20.2108C200.327 20.5464 200.464 20.8161 200.556 21.0259C200.602 21.1297 200.633 21.2109 200.654 21.2716C200.664 21.3015 200.671 21.3243 200.676 21.3404C200.68 21.3566 200.682 21.364 200.682 21.3633L204.599 20.5567C204.449 19.8234 204.058 19.0157 203.615 18.2352C203.145 17.4079 202.508 16.4289 201.72 15.3095L198.449 17.6105ZM200.7 21.4451C200.755 21.6656 200.785 21.8985 200.785 22.148H204.785C204.785 21.5815 204.718 21.0224 204.581 20.4749L200.7 21.4451ZM200.785 22.148C200.785 23.2735 200.411 23.8987 199.753 24.3456L202 27.6544C203.886 26.3733 204.785 24.4305 204.785 22.148H200.785ZM200.877 24H191.697V28H200.877V24ZM193.697 26V22.22H189.697V26H193.697ZM191.697 24.22H198.285V20.22H191.697V24.22ZM199.937 21.0937L196.085 15.4417L192.78 17.6943L196.632 23.3463L199.937 21.0937ZM196.12 15.4942C195.91 15.1641 195.609 14.7431 195.241 14.252L192.041 16.652C192.392 17.1209 192.619 17.4438 192.745 17.6418L196.12 15.4942ZM195.279 14.3051C194.947 13.8303 194.692 13.4603 194.513 13.1906L191.184 15.4094C191.389 15.7157 191.662 16.1137 192.002 16.5989L195.279 14.3051ZM194.552 13.2518C194.362 12.9432 194.271 12.7801 194.241 12.7216L190.664 14.5104C190.778 14.7399 190.951 15.0328 191.145 15.3482L194.552 13.2518ZM194.241 12.7216C194.152 12.5419 194.04 12.3342 193.913 12.1047L190.416 14.0473C190.529 14.2498 190.61 14.4021 190.664 14.5104L194.241 12.7216ZM193.953 12.1816C193.911 12.0962 193.881 12.0301 193.861 11.9815C193.84 11.9317 193.835 11.9108 193.836 11.9146L189.99 13.0134C190.084 13.3456 190.226 13.6718 190.376 13.9704L193.953 12.1816ZM193.87 12.052C193.787 11.6594 193.769 11.4394 193.769 11.348H189.769C189.769 11.8326 189.846 12.3566 189.955 12.876L193.87 12.052ZM193.769 11.348C193.769 10.8084 193.895 10.4668 194.059 10.2257C194.229 9.97664 194.538 9.69319 195.125 9.43691L193.524 5.77109C192.407 6.25881 191.438 6.97136 190.756 7.97034C190.068 8.97724 189.769 10.1356 189.769 11.348H193.769ZM220.74 0.799998L222.613 1.50129L223.625 -1.2H220.74V0.799998ZM214.944 16.28L213.071 15.5787L212.06 18.28H214.944V16.28ZM220.272 16.28V18.28H222.272V16.28H220.272ZM220.272 9.728V7.728H218.272V9.728H220.272ZM224.952 9.728H226.952V7.728H224.952V9.728ZM224.952 26V28H226.952V26H224.952ZM220.272 26H218.272V28H220.272V26ZM220.272 20.78H222.272V18.78H220.272V20.78ZM213.612 20.78L212.693 22.5564L213.126 22.78H213.612V20.78ZM212.208 9.908L214.065 10.6508L214.068 10.6432L212.208 9.908ZM215.808 0.799998V-1.2H214.448L213.948 0.0648284L215.808 0.799998ZM218.867 0.0987063L213.071 15.5787L216.817 16.9813L222.613 1.50129L218.867 0.0987063ZM214.944 18.28H220.272V14.28H214.944V18.28ZM222.272 16.28V9.728H218.272V16.28H222.272ZM220.272 11.728H224.952V7.728H220.272V11.728ZM222.952 9.728V26H226.952V9.728H222.952ZM224.952 24H220.272V28H224.952V24ZM222.272 26V20.78H218.272V26H222.272ZM220.272 18.78H213.612V22.78H220.272V18.78ZM214.531 19.0036C213.743 18.596 213.256 18.1339 212.958 17.6579C212.663 17.1865 212.48 16.5849 212.48 15.776H208.48C208.48 17.2231 208.819 18.5835 209.568 19.7801C210.314 20.9721 211.393 21.884 212.693 22.5564L214.531 19.0036ZM212.48 15.776C212.48 15.5576 212.555 15.0366 212.831 14.1C213.094 13.2045 213.502 12.0591 214.065 10.6508L210.351 9.16522C209.763 10.6369 209.306 11.9095 208.994 12.97C208.693 13.9894 208.48 14.9624 208.48 15.776H212.48ZM214.068 10.6432L217.668 1.53517L213.948 0.0648284L210.348 9.17283L214.068 10.6432ZM215.808 2.8H220.74V-1.2H215.808V2.8Z" fill="#FEDCDE" mask="url(#path-1-outside-1_747_3386)"/>
</svg>
